PathFileType	4	(X/Y/Z)	66_2_21_p1_0-172_filt_butterworth.trc
DataRate	CameraRate	NumFrames	NumMarkers	Units	OrigDataRate	OrigDataStartFrame	OrigNumFrames
41.0	41.0	4	27	m	41.0	0	172
Frame#	Time	RHip			RKnee			RAnkle			RBigToe			RSmallToe			RHeel			LHip			LKnee			LAnkle			LBigToe			LSmallToe			LHeel			Neck			Head			Nose			RShoulder			RElbow			RWrist			RThumb			RIndex			RPinky			LShoulder			LElbow			LWrist			LThumb			LIndex			LPinky			
		X1	Y1	Z1	X2	Y2	Z2	X3	Y3	Z3	X4	Y4	Z4	X5	Y5	Z5	X6	Y6	Z6	X7	Y7	Z7	X8	Y8	Z8	X9	Y9	Z9	X10	Y10	Z10	X11	Y11	Z11	X12	Y12	Z12	X13	Y13	Z13	X14	Y14	Z14	X15	Y15	Z15	X16	Y16	Z16	X17	Y17	Z17	X18	Y18	Z18	X19	Y19	Z19	X20	Y20	Z20	X21	Y21	Z21	X22	Y22	Z22	X23	Y23	Z23	X24	Y24	Z24	X25	Y25	Z25	X26	Y26	Z26	X27	Y27	Z27	
0	0.0	0.5499301895760874	0.6996801104321566	1.0839105674243066	0.5452062262671155	0.20828323098309892	1.1198233587270747	0.5142097803049899	-0.20068753057534885	1.1693872769134919	0.4847187233758569	-0.20030995546840283	0.9101210999326651	0.5473327776142571	-0.21394236707389644	0.9626045217256661	0.49769290613438094	-0.26903760867797377	1.2310208442446686	0.35865553481308415	0.6915627046922794	1.1142647414568072	0.3385198500310881	0.2295551051616726	1.130362804640793	0.3258024290424767	-0.18023553258885694	1.145262706491301	0.3295785410325476	-0.16866718104341566	0.902388101661825	0.27579848295507464	-0.2035565479455083	0.991402599386809	0.35479934309989386	-0.24176631562734968	1.2139034570570164	0.46143272350234243	1.2734881481642717	1.1115061595267242	0.45694241443986355	1.5417573598283907	1.0647018228663667	0.43986392839013305	1.4135173006929287	0.9615642292650102	0.5990311434416897	1.1897405911396541	1.0654348534897526	0.6501927310983764	0.9074121850781037	1.0835210516736584	0.4750809558589058	0.7897143584881148	0.926038930697016	0.41163203512274643	0.6988878535409253	0.9115413695679907	0.4130502968049585	0.690386230441562	0.9114945745366115	0.4264391219515883	0.6654832101949959	0.9151797962466642	0.3200934178030824	1.1827476033633013	1.1327404553913611	0.28346939768788787	0.9287282624391991	1.070575199251252	0.37798523362626507	0.7943293463915772	0.9101190519749505	0.4407181184416494	0.717087205651079	0.8642435158572033	0.43533990507310644	0.7108664867297917	0.8617985155513581	0.40820388720289996	0.6950092017817091	0.9013893512789541	
1	0.024390243902439	0.5491159368822522	0.6992992491701835	1.083983958378284	0.5455626460614715	0.20783085733391363	1.1204182627829946	0.5140502724483891	-0.19885661943353378	1.166369375219563	0.48378345115443927	-0.19735867090712195	0.9090937053421736	0.5503711654118774	-0.21351744221889005	0.9632034201861794	0.4983582236060579	-0.2656863205710308	1.2256804906527332	0.3592356663366738	0.6902477880215246	1.1132583702672731	0.3384396333653023	0.2292889595703755	1.1302556215134376	0.32615193610327387	-0.17959823898010918	1.1445230212825621	0.32748489564345773	-0.17124634044403425	0.9095274545606881	0.27590016865131595	-0.2024346141467359	0.9932754527387738	0.3555974797529269	-0.24020546328057868	1.2127409654774266	0.46129875652495356	1.2754638023053102	1.110976708776537	0.45692955617523984	1.540942438247675	1.0648197559353887	0.4397939014578801	1.4152041730117229	0.9611103280867003	0.5971002044913384	1.1897739108425305	1.0651050861803637	0.6500825111997945	0.9074343080038089	1.0833652071416715	0.4732346118824768	0.7901327556305939	0.9213211519807518	0.40996600727707283	0.7010329263190991	0.9058487874871487	0.4137171243885211	0.689951265519413	0.91088407979636	0.42758813177135613	0.664291530804396	0.9141921087465359	0.3202057865191128	1.1814176801563023	1.1330808897743765	0.2834284576285331	0.9288705604012092	1.0701881858765194	0.3764060222600884	0.7946005251315983	0.909438626299873	0.44089911051580843	0.7174595161742976	0.8637884414978547	0.4356593248466863	0.7143594596495048	0.8619755975391867	0.4082339523582013	0.6950747089423082	0.901429035715603	
2	0.048780487804878	0.5484098731000216	0.6989310354392988	1.0840748035514771	0.5457400247750906	0.20781240882713894	1.1205906158118766	0.5139676741609663	-0.19742811590844722	1.1640553981541375	0.48301252591268323	-0.1964396666871667	0.9098400425966835	0.5524744087220002	-0.21336740018928835	0.9636412032947113	0.4990427225938346	-0.2629096530173666	1.221293798267991	0.35980549956760105	0.6892287630586378	1.1120402477950777	0.338388626616823	0.22916575307993048	1.130172225694147	0.326522686319826	-0.1791933975116016	1.1440231935598952	0.3260591314796263	-0.17321034449385436	0.9144566478990638	0.27592106789500265	-0.2018075239427065	0.9944894694299732	0.3563697450761343	-0.23918566924854276	1.21193531094604	0.4612088918950557	1.2766944886624256	1.110631818535973	0.4569356289262677	1.54069280238324	1.0647675559683125	0.4397482732931531	1.4162570739589428	0.9608378812436889	0.5959029746002008	1.18978972324378	1.064928594917886	0.6499959125961623	0.9074518686012747	1.0832630581107667	0.4719420637936028	0.7897741678956873	0.9180120437267087	0.40882176626869754	0.7024713607685986	0.9020213854071661	0.413944782049545	0.68978310855978	0.9106333586409998	0.42863929008447793	0.6632270199334606	0.9136390629462336	0.3202695491619661	1.1803049568403385	1.133341333863795	0.28340041545870565	0.9289665209951358	1.0699157169397364	0.37510793113386104	0.7948389795105396	0.9088091012904359	0.44088179977975606	0.7176877364468547	0.8634877114102502	0.43584142889418265	0.7165191854729696	0.8620643599434001	0.4082590706467796	0.6951319951112807	0.9014359570259318	
3	0.073170731707317	0.5478077619273414	0.6985732170255734	1.0841799498418403	0.5457565820532642	0.20818270809043762	1.1203847274407703	0.5139541227140161	-0.19636893184046067	1.1623818411454476	0.48245350823313854	-0.19699346246631827	0.9117739507098892	0.5538051814029745	-0.21342637481487395	0.9639616607668832	0.4997399394513332	-0.2606693775405914	1.2177860289616398	0.3603593855381298	0.6884757902122898	1.1106523111446165	0.3383643839815064	0.22917151431001687	1.130110148351957	0.3269117667079557	-0.17899708335537923	1.1437415328754037	0.3252279553087741	-0.17472210809135508	0.9176822429137235	0.27588763110430514	-0.20156259556209571	0.9951639574060811	0.35711446854709133	-0.23865499966089376	1.2114534219338826	0.46115474660016825	1.277327232495761	1.1104386439090534	0.4569558792506484	1.5408851392210166	1.0645948663507452	0.4397224278654752	1.4167996280657111	0.9607120446037318	0.5952940370828885	1.1897921027778375	1.0648668655301454	0.6499316930076283	0.9074648849041111	1.083204687701781	0.4711569087428828	0.788855245758147	0.9159586238865535	0.4081086102840412	0.703331217168555	0.8997249148021835	0.4138411093995881	0.68981686608255	0.9106572197190086	0.429546568639026	0.6623207832877979	0.9134387986041461	0.32029649930492055	1.1794010722751895	1.1335329573917126	0.283383981587592	0.9290221362835803	1.0697423967730475	0.37411175458826185	0.7950471802955228	0.9082308582848295	0.4407264876248313	0.7177991464167504	0.8633200196907417	0.4359154368693712	0.7176091801894557	0.8620930949713222	0.4082808614273706	0.6951794207596845	0.901420530816099	
